<?xml version="1.0" encoding="UTF-8"?>
<svg id="OBJECTS" xmlns="http://www.w3.org/2000/svg" xmlns:xlink="http://www.w3.org/1999/xlink" viewBox="0 0 640.07 338.19">
  <defs>
    <style>
      .cls-1 {
        fill: #fff;
      }

      .cls-2 {
        fill: url(#Nueva_muestra_de_degradado_3);
      }

      .cls-3 {
        stroke: #fff;
        stroke-width: .75px;
      }

      .cls-3, .cls-4 {
        fill: none;
        stroke-miterlimit: 10;
      }

      .cls-5 {
        fill: url(#Nueva_muestra_de_degradado_4);
      }

      .cls-6 {
        fill: url(#Nueva_muestra_de_degradado_5);
      }

      .cls-4 {
        stroke: #000;
        stroke-width: .25px;
      }

      .cls-7 {
        fill: url(#Nueva_muestra_de_degradado_2);
      }

      .cls-8 {
        fill: url(#Nueva_muestra_de_degradado_1);
      }
    </style>
    <linearGradient id="Nueva_muestra_de_degradado_5" data-name="Nueva muestra de degradado 5" x1="5.27" y1="212.85" x2="35.94" y2="250.52" gradientTransform="translate(236.29 151.01) rotate(74.77)" gradientUnits="userSpaceOnUse">
      <stop offset="0" stop-color="#ffef9e"/>
      <stop offset=".37" stop-color="#efd76f"/>
      <stop offset=".79" stop-color="#e0bf3f"/>
      <stop offset="1" stop-color="#dab62d"/>
    </linearGradient>
    <linearGradient id="Nueva_muestra_de_degradado_4" data-name="Nueva muestra de degradado 4" x1="113.34" y1="248.91" x2="202" y2="203.57" gradientTransform="translate(354.18 46.23) rotate(81.09)" gradientUnits="userSpaceOnUse">
      <stop offset="0" stop-color="#fcb"/>
      <stop offset=".41" stop-color="#e69883"/>
      <stop offset=".8" stop-color="#d16c53"/>
      <stop offset="1" stop-color="#c95b41"/>
    </linearGradient>
    <linearGradient id="Nueva_muestra_de_degradado_2" data-name="Nueva muestra de degradado 2" x1="417.77" y1="217.06" x2="443.44" y2="241.39" gradientTransform="translate(289.12 -237.75) rotate(45)" gradientUnits="userSpaceOnUse">
      <stop offset="0" stop-color="#69acce"/>
      <stop offset=".81" stop-color="#9bcff5"/>
      <stop offset="1" stop-color="#a8d8ff"/>
    </linearGradient>
    <linearGradient id="Nueva_muestra_de_degradado_1" data-name="Nueva muestra de degradado 1" x1="587.25" y1="213.05" x2="554.25" y2="250.71" gradientTransform="translate(330.34 -337.27) rotate(45)" gradientUnits="userSpaceOnUse">
      <stop offset="0" stop-color="#7452ff"/>
      <stop offset=".15" stop-color="#8563ff"/>
      <stop offset=".73" stop-color="#c29fff"/>
      <stop offset="1" stop-color="#dbb7ff"/>
    </linearGradient>
    <linearGradient id="Nueva_muestra_de_degradado_3" data-name="Nueva muestra de degradado 3" x1="249.09" y1="257.82" x2="324.42" y2="207.82" gradientTransform="translate(471.7 -93.62) rotate(80.84)" gradientUnits="userSpaceOnUse">
      <stop offset="0" stop-color="#4bb52d"/>
      <stop offset=".28" stop-color="#70c660"/>
      <stop offset=".93" stop-color="#cef1df"/>
      <stop offset="1" stop-color="#d9f6ee"/>
    </linearGradient>
  </defs>
  <g>
    <g>
      <circle class="cls-6" cx="19.33" cy="230.12" r="19.33" transform="translate(-207.79 188.32) rotate(-74.77)"/>
      <line class="cls-4" x1="19.33" y1="210.79" x2="19.33" y2="126.45"/>
      <path d="m20.97,126.45c0,.91-.73,1.64-1.64,1.64s-1.64-.73-1.64-1.64.73-1.64,1.64-1.64,1.64.73,1.64,1.64Z"/>
      <polyline class="cls-4" points="19.33 249.46 19.33 278.12 38.67 278.12"/>
    </g>
    <path class="cls-3" d="m21.88,224.32c-2.3-2.31-6.04-2.3-8.35,0-2.3,2.3-2.3,6.04,0,8.35,1.94,1.94,4.89,2.24,7.15.92l3.63,3.63c.58.58,1.53.58,2.11,0,.58-.58.58-1.53,0-2.11l-3.63-3.63c1.32-2.26,1.02-5.21-.92-7.15Zm-1.86,6.48c-1.28,1.28-3.34,1.28-4.62,0-1.28-1.28-1.28-3.34,0-4.62,1.28-1.28,3.34-1.28,4.62,0,1.28,1.28,1.28,3.34,0,4.62Z"/>
    <rect x="37.67" y="253.46" width="49.44" height="49.59" rx="24.72" ry="24.72"/>
  </g>
  <g>
    <g>
      <line class="cls-4" x1="150.07" y1="338.19" x2="150.07" y2="247.85"/>
      <path d="m151.71,336.12c0,.91-.73,1.64-1.64,1.64s-1.64-.73-1.64-1.64.73-1.64,1.64-1.64,1.64.73,1.64,1.64Z"/>
      <polyline class="cls-4" points="149.15 212.43 149.15 183.76 168.49 183.76"/>
      <circle class="cls-5" cx="150.07" cy="230.12" r="19.33" transform="translate(-100.51 342.75) rotate(-81.09)"/>
    </g>
    <path class="cls-1" d="m157.92,223.31c.48,0,.87.39.87.87v9.55c0,.48-.39.87-.87.87h-11.35c-.3,0-.6.1-.84.28l-2.62,1.97c-.07.05-.15.08-.23.08-.2,0-.39-.16-.39-.39v-12.37c0-.48.39-.87.87-.87h14.56m-10.9,4.19h8.03c.22,0,.39-.17.39-.39s-.17-.39-.39-.39h-8.03c-.22,0-.39.17-.39.39s.17.39.39.39m0,1.82h8.03c.22,0,.39-.17.39-.39s-.17-.39-.39-.39h-8.03c-.22,0-.39.17-.39.39s.17.39.39.39m0,1.82h8.03c.22,0,.39-.17.39-.39s-.17-.39-.39-.39h-8.03c-.22,0-.39.17-.39.39s.17.39.39.39m10.9-8.49h-14.56c-.85,0-1.54.69-1.54,1.54v12.37c0,.59.48,1.07,1.07,1.07.23,0,.45-.07.64-.22l2.62-1.97c.12-.09.28-.14.43-.14h11.35c.85,0,1.54-.69,1.54-1.54v-9.55c0-.85-.69-1.54-1.54-1.54h0Z"/>
    <path d="m193.21,208.55h0c-13.65,0-24.72-11.07-24.72-24.72v-.14c0-13.65,11.07-24.72,24.72-24.72h0c13.65,0,24.72,11.07,24.72,24.72v.14c0,13.65-11.07,24.72-24.72,24.72Z"/>
  </g>
  <g>
    <g>
      <line class="cls-4" x1="431.55" y1="338.19" x2="431.55" y2="247.85"/>
      <path d="m433.19,336.12c0,.91-.73,1.64-1.64,1.64s-1.64-.73-1.64-1.64.73-1.64,1.64-1.64,1.64.73,1.64,1.64Z"/>
      <polyline class="cls-4" points="431.55 212.43 431.55 183.76 450.89 183.76"/>
      <circle class="cls-7" cx="431.55" cy="230.12" r="19.33" transform="translate(-36.32 372.56) rotate(-45)"/>
    </g>
    <path class="cls-1" d="m431.55,222.1c1.89,0,3.5.87,4.56,2.18,1.56,1.95,1.58,4.72.23,6.82l-4.34,6.79c-.1.16-.28.25-.45.25s-.34-.08-.45-.25l-4.34-6.79c-1.35-2.1-1.33-4.88.23-6.82,1.05-1.31,2.67-2.18,4.56-2.18m0,7.8c1.1,0,1.98-.89,1.98-1.98s-.89-1.98-1.98-1.98-1.98.89-1.98,1.98.89,1.98,1.98,1.98m0-8.53c-2.01,0-3.88.9-5.13,2.46-1.73,2.15-1.84,5.24-.28,7.67l4.34,6.79c.23.36.63.58,1.06.58s.83-.22,1.06-.58l4.34-6.79c1.56-2.44,1.45-5.52-.28-7.67-1.25-1.56-3.12-2.46-5.13-2.46h0Zm0,7.8c-.69,0-1.25-.56-1.25-1.25s.56-1.25,1.25-1.25,1.25.56,1.25,1.25-.56,1.25-1.25,1.25h0Z"/>
    <path d="m475.61,204.53h0c-13.65,0-24.72-11.07-24.72-24.72v-.14c0-13.65,11.07-24.72,24.72-24.72h0c13.65,0,24.72,11.07,24.72,24.72v.14c0,13.65-11.07,24.72-24.72,24.72Z"/>
  </g>
  <g>
    <g>
      <circle class="cls-8" cx="572.29" cy="230.12" r="19.33" transform="translate(4.9 472.07) rotate(-45)"/>
      <line class="cls-4" x1="572.29" y1="210.79" x2="572.29" y2="126.45"/>
      <path d="m573.93,126.45c0,.91-.73,1.64-1.64,1.64s-1.64-.73-1.64-1.64.73-1.64,1.64-1.64,1.64.73,1.64,1.64Z"/>
      <polyline class="cls-4" points="571.92 249.46 571.92 278.12 591.25 278.12"/>
    </g>
    <g>
      <path class="cls-1" d="m579.46,224.31c.77,0,1.39.62,1.39,1.39v1.06h-17.13v-1.06c0-.77.62-1.39,1.39-1.39h14.35m0-.73h-14.35c-1.17,0-2.12.95-2.12,2.12v1.79h18.59v-1.79c0-1.17-.95-2.12-2.12-2.12h0Z"/>
      <path class="cls-1" d="m580.86,228.9v5.64c0,.77-.62,1.39-1.39,1.39h-14.35c-.77,0-1.39-.62-1.39-1.39v-5.64h17.13m-4.78,3.22c-.18-.17-.42-.28-.69-.28-.55,0-.99.45-.99.99s.44.99.99.99c.27,0,.51-.11.69-.28.18.17.42.28.69.28.55,0,.99-.45.99-.99s-.45-.99-.99-.99c-.27,0-.51.11-.69.28m5.51-3.95h-18.59v6.37c0,1.17.95,2.12,2.12,2.12h14.35c1.17,0,2.12-.95,2.12-2.12v-6.37h0Zm-5.2,4.66l.2-.19s.1-.07.18-.07c.15,0,.26.12.26.26s-.12.26-.26.26c-.09,0-.15-.04-.18-.07l-.2-.19h0Zm-1,.26c-.15,0-.26-.12-.26-.26s.12-.26.26-.26c.09,0,.15.04.18.07l.2.19-.2.19s-.1.07-.18.07h0Z"/>
    </g>
    <path d="m615.35,303.04h0c-13.65,0-24.72-11.07-24.72-24.72v-.14c0-13.65,11.07-24.72,24.72-24.72h0c13.65,0,24.72,11.07,24.72,24.72v.14c0,13.65-11.07,24.72-24.72,24.72Z"/>
  </g>
  <g>
    <g>
      <circle class="cls-2" cx="290.81" cy="230.12" r="19.33" transform="translate(17.32 480.59) rotate(-80.84)"/>
      <line class="cls-4" x1="290.81" y1="210.79" x2="290.81" y2="126.45"/>
      <path d="m292.6,126.45c0,.91-.73,1.64-1.64,1.64s-1.64-.73-1.64-1.64.73-1.64,1.64-1.64,1.64.73,1.64,1.64Z"/>
      <polyline class="cls-4" points="290.81 249.46 290.81 278.12 310.15 278.12"/>
    </g>
    <path class="cls-1" d="m298.2,223.8c.73,0,1.33.59,1.33,1.33v10c0,.73-.59,1.33-1.33,1.33h-14.48c-.73,0-1.33-.59-1.33-1.33v-10c0-.73.59-1.33,1.33-1.33h14.48m-8.95,8.62s.06,0,.08-.02l4.12-2.38c.11-.06.11-.23,0-.29l-4.12-2.38s-.06-.02-.08-.02c-.09,0-.17.07-.17.17v4.76c0,.1.08.17.17.17m8.95-9.35h-14.48c-1.13,0-2.06.92-2.06,2.06v10c0,1.13.92,2.06,2.06,2.06h14.48c1.13,0,2.06-.92,2.06-2.06v-10c0-1.13-.92-2.06-2.06-2.06h0Zm-8.39,8.21v-2.81l2.43,1.4-2.43,1.4h0Z"/>
    <rect x="309.28" y="253.46" width="49.44" height="49.59" rx="24.72" ry="24.72"/>
  </g>
</svg>