<?xml version="1.0" encoding="UTF-8"?>
<svg id="Layer_2" data-name="Layer 2" xmlns="http://www.w3.org/2000/svg" xmlns:xlink="http://www.w3.org/1999/xlink" viewBox="0 0 1287.51 733.08">
  <defs>
    <style>
      .cls-1 {
        fill: none;
        isolation: isolate;
        opacity: .78;
        stroke: #fff;
        stroke-miterlimit: 10;
        stroke-width: 2px;
      }

      .cls-2 {
        opacity: .8;
      }

      .cls-3 {
        fill: url(#radial-gradient);
      }
    </style>
    <radialGradient id="radial-gradient" cx="828.13" cy="359.89" fx="828.13" fy="359.89" r="715.49" gradientTransform="translate(-7.05 .07) scale(1.01)" gradientUnits="userSpaceOnUse">
      <stop offset=".34" stop-color="#171312"/>
      <stop offset=".5" stop-color="#120f0f"/>
      <stop offset=".85" stop-color="#0c0c0c"/>
    </radialGradient>
  </defs>
  <rect class="cls-3" width="1287.51" height="733.08"/>
  <g class="cls-2">
    <polygon class="cls-1" points="1172.9 588.63 1084.75 537.73 1084.75 726.08 1282 726.08 1108.42 625.86 1172.9 588.63"/>
    <path class="cls-1" d="m1084.75,464.36v4.8l30.44-17.58-143.77-83.01,1.07-.62-41.21-23.79,115.72-66.81v47.58l98-56.58v5.13l136.6-78.87-109.3-63.1v119.43l-166.88-88.79,166.88-88.79v1.71l109.7-63.34V3.07H2v723h849.7v-116.29l173.58,100.22-27.84,16.08h87.31l-226.65-130.86,226.65-130.86h0Zm-243.91,245.64l-115.72-66.81,115.72-66.81v133.62Z"/>
    <polygon class="cls-1" points="1145 434.37 1209.68 397.03 1145 359.69 1145 434.37"/>
    <polygon class="cls-1" points="1172.3 131.52 1281.6 194.62 1282 194.39 1282 11.74 1172.3 75.07 1172.3 131.52"/>
    <polygon class="cls-1" points="1172.3 75.07 1172.3 73.36 1005.42 162.15 1172.3 250.95 1172.3 131.52 1123.42 103.3 1172.3 75.07"/>
    <polygon class="cls-1" points="1123.42 103.3 1172.3 131.52 1172.3 75.07 1123.42 103.3"/>
    <polygon class="cls-1" points="1209.68 397.03 1282 355.28 1282 194.85 1281.6 194.62 1145 273.49 1145 359.69 1209.68 397.03"/>
    <polygon class="cls-1" points="1282 194.39 1281.6 194.62 1282 194.85 1282 194.39"/>
    <polygon class="cls-1" points="1145 359.69 1070.35 316.59 1145 273.49 1145 268.36 1047 324.94 1047 410.98 972.48 367.96 971.42 368.58 1115.19 451.58 1145 434.37 1145 359.69"/>
    <polygon class="cls-1" points="1145 359.69 1145 273.49 1070.35 316.59 1145 359.69"/>
    <polygon class="cls-1" points="1145 434.37 1145 468.8 1115.19 451.58 1084.75 469.16 1084.75 537.73 1172.9 588.63 1282 525.64 1282 438.79 1209.68 397.03 1145 434.37"/>
    <polygon class="cls-1" points="1209.68 397.03 1282 438.79 1282 355.28 1209.68 397.03"/>
    <polygon class="cls-1" points="1145 434.37 1115.19 451.58 1145 468.8 1145 434.37"/>
    <polygon class="cls-1" points="1108.42 625.86 1282 726.08 1282 651.62 1172.9 588.63 1108.42 625.86"/>
    <polygon class="cls-1" points="1172.9 588.63 1282 651.62 1282 525.64 1172.9 588.63"/>
    <polygon class="cls-1" points="1047 277.36 931.28 344.17 972.48 367.96 1047 324.94 1047 277.36"/>
    <polygon class="cls-1" points="1047 324.94 972.48 367.96 1047 410.98 1047 324.94"/>
    <polygon class="cls-1" points="1025.36 503.45 1084.75 469.16 1084.75 464.36 858.09 595.22 1084.75 726.08 1084.75 537.73 1025.36 503.45"/>
    <polygon class="cls-1" points="1025.36 503.45 1084.75 537.73 1084.75 469.16 1025.36 503.45"/>
    <polygon class="cls-1" points="851.7 609.79 851.7 726.08 997.44 726.08 1025.28 710 851.7 609.79"/>
    <polygon class="cls-1" points="840.83 710 840.83 576.38 725.11 643.19 840.83 710"/>
  </g>
</svg>