<?xml version="1.0" encoding="UTF-8"?>
<svg id="Layer_2" data-name="Layer 2" xmlns="http://www.w3.org/2000/svg" viewBox="0 0 1285.73 730.81">
  <defs>
    <style>
      .cls-1 {
        fill: #0c0c0c;
      }

      .cls-2 {
        fill: none;
        isolation: isolate;
        opacity: .78;
        stroke: #fff;
        stroke-miterlimit: 10;
        stroke-width: 2px;
      }

      .cls-3 {
        opacity: .8;
      }
    </style>
  </defs>
  <rect id="chapado_black" class="cls-1" width="1281.6" height="725.39"/>
  <g class="cls-3">
    <polygon class="cls-2" points="1172.9 591.63 1084.75 540.73 1084.75 729.08 1282 729.08 1108.42 628.86 1172.9 591.63"/>
    <path class="cls-2" d="m1084.75,467.36v4.8l30.44-17.58-143.77-83.01,1.07-.62-41.21-23.79,115.72-66.81v47.58l98-56.58v5.13l136.6-78.87-109.3-63.1v119.43l-166.88-88.79,166.88-88.79v1.71l109.7-63.34V6.07H2v723h849.7v-116.29l173.58,100.22-27.84,16.08h87.31l-226.65-130.86,226.65-130.86h0Zm-243.91,245.64l-115.72-66.81,115.72-66.81v133.62Z"/>
    <polygon class="cls-2" points="1145 437.37 1209.68 400.03 1145 362.69 1145 437.37"/>
    <polygon class="cls-2" points="1172.3 134.52 1281.6 197.62 1282 197.39 1282 14.74 1172.3 78.07 1172.3 134.52"/>
    <polygon class="cls-2" points="1172.3 78.07 1172.3 76.36 1005.42 165.15 1172.3 253.95 1172.3 134.52 1123.42 106.3 1172.3 78.07"/>
    <polygon class="cls-2" points="1123.42 106.3 1172.3 134.52 1172.3 78.07 1123.42 106.3"/>
    <polygon class="cls-2" points="1209.68 400.03 1282 358.28 1282 197.85 1281.6 197.62 1145 276.49 1145 362.69 1209.68 400.03"/>
    <polygon class="cls-2" points="1282 197.39 1281.6 197.62 1282 197.85 1282 197.39"/>
    <polygon class="cls-2" points="1145 362.69 1070.35 319.59 1145 276.49 1145 271.36 1047 327.94 1047 413.98 972.48 370.96 971.42 371.58 1115.19 454.58 1145 437.37 1145 362.69"/>
    <polygon class="cls-2" points="1145 362.69 1145 276.49 1070.35 319.59 1145 362.69"/>
    <polygon class="cls-2" points="1145 437.37 1145 471.8 1115.19 454.58 1084.75 472.16 1084.75 540.73 1172.9 591.63 1282 528.64 1282 441.79 1209.68 400.03 1145 437.37"/>
    <polygon class="cls-2" points="1209.68 400.03 1282 441.79 1282 358.28 1209.68 400.03"/>
    <polygon class="cls-2" points="1145 437.37 1115.19 454.58 1145 471.8 1145 437.37"/>
    <polygon class="cls-2" points="1108.42 628.86 1282 729.08 1282 654.62 1172.9 591.63 1108.42 628.86"/>
    <polygon class="cls-2" points="1172.9 591.63 1282 654.62 1282 528.64 1172.9 591.63"/>
    <polygon class="cls-2" points="1047 280.36 931.28 347.17 972.48 370.96 1047 327.94 1047 280.36"/>
    <polygon class="cls-2" points="1047 327.94 972.48 370.96 1047 413.98 1047 327.94"/>
    <polygon class="cls-2" points="1025.36 506.45 1084.75 472.16 1084.75 467.36 858.09 598.22 1084.75 729.08 1084.75 540.73 1025.36 506.45"/>
    <polygon class="cls-2" points="1025.36 506.45 1084.75 540.73 1084.75 472.16 1025.36 506.45"/>
    <polygon class="cls-2" points="851.7 612.79 851.7 729.08 997.44 729.08 1025.28 713 851.7 612.79"/>
    <polygon class="cls-2" points="840.83 713 840.83 579.38 725.11 646.19 840.83 713"/>
  </g>
</svg>